<svg width="18" height="18" viewBox="0 0 18 18" fill="none" xmlns="http://www.w3.org/2000/svg">
<path d="M9 17.0625C4.5525 17.0625 0.9375 13.4475 0.9375 9C0.9375 4.5525 4.5525 0.9375 9 0.9375C13.4475 0.9375 17.0625 4.5525 17.0625 9C17.0625 13.4475 13.4475 17.0625 9 17.0625ZM9 2.0625C5.175 2.0625 2.0625 5.175 2.0625 9C2.0625 12.825 5.175 15.9375 9 15.9375C12.825 15.9375 15.9375 12.825 15.9375 9C15.9375 5.175 12.825 2.0625 9 2.0625Z" fill="#7A7C83"/>
<path d="M6.75018 16.3125H6.00018C5.69268 16.3125 5.43768 16.0575 5.43768 15.75C5.43768 15.4425 5.67768 15.195 5.98518 15.1875C4.80768 11.1675 4.80768 6.8325 5.98518 2.8125C5.67768 2.805 5.43768 2.5575 5.43768 2.25C5.43768 1.9425 5.69268 1.6875 6.00018 1.6875H6.75018C6.93018 1.6875 7.10268 1.7775 7.20768 1.92C7.31268 2.07 7.34268 2.2575 7.28268 2.43C5.87268 6.6675 5.87268 11.3325 7.28268 15.5775C7.34268 15.75 7.31268 15.9375 7.20768 16.0875C7.10268 16.2225 6.93018 16.3125 6.75018 16.3125Z" fill="#7A7C83"/>
<path d="M11.2498 16.3125C11.1898 16.3125 11.1298 16.305 11.0698 16.2825C10.7773 16.185 10.6123 15.8625 10.7173 15.57C12.1273 11.3325 12.1273 6.66751 10.7173 2.42251C10.6198 2.13001 10.7773 1.80751 11.0698 1.71001C11.3698 1.61251 11.6848 1.77001 11.7823 2.06251C13.2748 6.53251 13.2748 11.4525 11.7823 15.915C11.7073 16.1625 11.4823 16.3125 11.2498 16.3125Z" fill="#7A7C83"/>
<path d="M9 12.9C6.9075 12.9 4.8225 12.6075 2.8125 12.015C2.805 12.315 2.5575 12.5625 2.25 12.5625C1.9425 12.5625 1.6875 12.3075 1.6875 12V11.25C1.6875 11.07 1.7775 10.8975 1.92 10.7925C2.07 10.6875 2.2575 10.6575 2.43 10.7175C6.6675 12.1275 11.34 12.1275 15.5775 10.7175C15.75 10.6575 15.9375 10.6875 16.0875 10.7925C16.2375 10.8975 16.32 11.07 16.32 11.25V12C16.32 12.3075 16.065 12.5625 15.7575 12.5625C15.45 12.5625 15.2025 12.3225 15.195 12.015C13.1775 12.6075 11.0925 12.9 9 12.9Z" fill="#7A7C83"/>
<path d="M15.7498 7.31249C15.6898 7.31249 15.6298 7.30499 15.5698 7.28249C11.3323 5.87249 6.65984 5.87249 2.42234 7.28249C2.12234 7.37999 1.80734 7.22249 1.70984 6.92999C1.61984 6.62999 1.77734 6.31499 2.06984 6.21749C6.53984 4.72499 11.4598 4.72499 15.9223 6.21749C16.2148 6.31499 16.3798 6.63749 16.2748 6.92999C16.2073 7.16249 15.9823 7.31249 15.7498 7.31249Z" fill="#7A7C83"/>
</svg>
