<svg xmlns="http://www.w3.org/2000/svg" version="1.1" xmlns:xlink="http://www.w3.org/1999/xlink" width="24" height="24" x="0" y="0" viewBox="0 0 24 24" style="enable-background:new 0 0 512 512" xml:space="preserve" class=""><g><path d="M24 3.5c0 .28-.22.5-.5.5H.5C.22 4 0 3.78 0 3.5S.22 3 .5 3h23c.28 0 .5.22.5.5ZM7.5 21h-7c-.28 0-.5.22-.5.5s.22.5.5.5h7c.28 0 .5-.22.5-.5s-.22-.5-.5-.5Zm8-9H.5c-.28 0-.5.22-.5.5s.22.5.5.5h15c.28 0 .5-.22.5-.5s-.22-.5-.5-.5Z" fill="#0e0f14" opacity="1" data-original="#000000" class=""></path></g></svg>