<svg width="24" height="24" viewBox="0 0 24 24" fill="none" xmlns="http://www.w3.org/2000/svg">
<path d="M11.4995 21.7501C5.84951 21.7501 1.24951 17.1501 1.24951 11.5001C1.24951 5.85006 5.84951 1.25006 11.4995 1.25006C17.1495 1.25006 21.7495 5.85006 21.7495 11.5001C21.7495 17.1501 17.1495 21.7501 11.4995 21.7501ZM11.4995 2.75006C6.66951 2.75006 2.74951 6.68006 2.74951 11.5001C2.74951 16.3201 6.66951 20.2501 11.4995 20.2501C16.3295 20.2501 20.2495 16.3201 20.2495 11.5001C20.2495 6.68006 16.3295 2.75006 11.4995 2.75006Z" fill="#0E0F14"/>
<path d="M21.9992 22.75C21.8092 22.75 21.6192 22.68 21.4692 22.53L17.9993 19.0601C17.7093 18.7701 17.7093 18.2901 17.9993 18.0001C18.2893 17.7101 18.7693 17.7101 19.0593 18.0001L22.5292 21.47C22.8192 21.76 22.8192 22.24 22.5292 22.53C22.3792 22.68 22.1892 22.75 21.9992 22.75Z" fill="#0E0F14"/>
</svg>
